<?xml version="1.0" standalone="no"?>
<!DOCTYPE svg PUBLIC "-//W3C//DTD SVG 20010904//EN"
 "http://www.w3.org/TR/2001/REC-SVG-20010904/DTD/svg10.dtd">
<svg version="1.0" xmlns="http://www.w3.org/2000/svg"
 width="360.000000pt" height="360.000000pt" viewBox="0 0 360.000000 360.000000"
 preserveAspectRatio="xMidYMid meet">

<g transform="translate(0.000000,360.000000) scale(0.100000,-0.100000)"
fill="#000000" stroke="none">
<path d="M1984 3351 c-21 -16 -168 -159 -326 -317 -246 -248 -287 -294 -293
-327 -11 -59 2 -102 40 -136 44 -38 94 -48 143 -29 l37 15 108 -106 107 -106
300 300 300 300 -107 107 c-102 102 -106 108 -95 133 61 132 -96 254 -214 166z"/>
<path d="M2187 2552 l-297 -297 168 -168 169 -168 279 279 c153 153 288 289
298 301 l20 22 -164 164 c-91 91 -167 165 -170 165 -3 0 -139 -134 -303 -298z"/>
<path d="M2617 2122 l-297 -297 105 -106 106 -105 -15 -30 c-29 -55 -12 -120
43 -167 37 -31 104 -37 149 -13 15 8 163 151 329 318 325 327 333 337 311 415
-21 78 -99 118 -180 93 l-41 -12 -101 101 c-56 56 -104 101 -106 101 -3 0
-139 -134 -303 -298z"/>
<path d="M1527 1740 l-364 -339 104 -105 104 -104 73 76 c72 77 191 204 295
317 31 33 115 123 188 201 l132 140 -77 77 c-43 42 -80 77 -84 77 -3 0 -170
-153 -371 -340z"/>
<path d="M660 934 c-217 -201 -405 -382 -418 -403 -19 -30 -23 -47 -20 -103 3
-57 8 -73 34 -105 57 -72 156 -97 236 -59 20 10 86 71 149 139 182 197 325
351 484 521 l148 158 -109 109 c-60 60 -109 109 -109 109 -1 0 -178 -165 -395
-366z"/>
</g>
</svg>
